<?xml version="1.0" standalone="no"?>
<svg viewBox="0 0 200 200" xmlns="http://www.w3.org/2000/svg">
  <path fill="#D0E2FF" d="M39.2,-71.9C43.1,-58.5,33.1,-34.6,36.6,-19C40.1,-3.5,56.9,3.5,64.8,15.4C72.6,27.3,71.3,44,61.9,52.1C52.5,60.1,34.9,59.5,19.7,61.2C4.6,62.9,-8.1,66.9,-17.6,62.8C-27.1,58.7,-33.3,46.5,-34.4,35.3C-35.5,24.2,-31.5,14.1,-29.6,6.2C-27.8,-1.8,-28.3,-7.4,-30.9,-19.2C-33.5,-31.1,-38.2,-49,-33.5,-61.9C-28.7,-74.8,-14.3,-82.7,1.7,-85.3C17.7,-87.9,35.3,-85.2,39.2,-71.9Z" transform="translate(100 100)" />
</svg>
