<svg id="SvgjsSvg1001" width="288" height="288" xmlns="http://www.w3.org/2000/svg" version="1.1" xmlns:xlink="http://www.w3.org/1999/xlink" xmlns:svgjs="http://svgjs.com/svgjs"><defs id="SvgjsDefs1002"></defs><g id="SvgjsG1008" transform="matrix(1,0,0,1,0,0)"><svg xmlns="http://www.w3.org/2000/svg" viewBox="0 0 100 100" width="288" height="288"><path d="M50.6 21c3.6-2.5 7.5-4.1 11.8-4.7 14.6-2 24.8 7.9 26.1 19.8.8 7-1.3 13.2-6.1 18.5-.2.2-.4.5-.4.8-.8 4.1-2.6 5.7-6.7 6.2-.1 0-.1.1-.2.1-.3 4.3-3.1 6.8-7 6.9 0 2.1-.7 4-2.5 5.4-1.7 1.4-3.7 1.8-5.9 1.3-.3 2.5-1.9 4-3.5 5.5-1 .9-1.9 1.9-2.9 2.9-2.1 2.1-4.5 2.7-7.2 1.7-2.7-1-4.1-3.1-4.2-6.1 0-.1 0-.2-.1-.4-1.9.1-3.6-.6-5-1.9-1.4-1.3-2-3-2-5-1.9-.1-3.6-.6-5-2-1.4-1.3-1.9-3-2-4.9-.3 0-.6-.1-.9-.1-3.8-.5-6.1-3.2-6-7 0-.4-.2-.9-.5-1.1-4-3.7-7-8-8.3-13.3-1.9-7.7-1-14.9 4.1-21.1 8.4-10.3 24-11 33.9-1.8.3.1.4.2.5.3zm2.3 46.9c.2 0 .3.1.4.1 2.2.1 3.9 1 5.2 2.6.4.5.9.9 1.5 1.2 1.5.9 3.4.3 4.3-1.2.8-1.4.6-2.9-.8-4.3L50.1 52.9l-.7-.7c-.6-.7-.5-1.6.1-2.2.6-.6 1.5-.7 2.2-.1.3.2.5.5.7.7l13.5 13.5c.9.9 1.9 1.4 3.2 1.1 1.3-.3 2.1-1.1 2.4-2.4.4-1.3-.1-2.3-1-3.2-4.7-4.6-9.3-9.3-14-13.9-.8-.8-.9-1.8-.2-2.5s1.7-.6 2.5.2c2.7 2.7 5.4 5.3 8.1 8l6 6c1.7 1.6 4.1 1.3 5.2-.6.8-1.3.5-2.8-.7-4.1C71 46 64.5 39.5 58 33c-.1-.1-.3-.3-.6-.5-.2.2-.3.4-.5.6-2.4 2.4-4.7 4.8-7.2 7.1-5.1 4.7-12.9 3.9-17.3-1.6 5.2-5.1 10.4-10.3 15.6-15.4-8.4-8.5-23.3-7.3-30 2.5-4.2 6.1-4.3 12.7-1.8 19.4 1.3 3.5 3.5 6.5 6.4 9l5.1-5.1c1.8-1.8 3.9-2.3 6.3-1.6 2.4.7 4 2.3 4.6 4.7.2.6.2 1.3.3 1.9 1.9 0 3.6.6 4.9 2 1.4 1.4 1.9 3.1 2 4.9 4.8.2 7.2 3.5 7.1 7zM81 51.2s.1-.2.2-.2c.2-.3.4-.5.6-.8 2.9-4.3 4.2-9 3.4-14.2-1-6.4-4.2-11.4-10-14.4-7.4-3.9-17.5-2.6-23.9 3.3-4.8 4.4-9.2 9.1-13.9 13.7v.2c3 2.2 7.5 1.7 10.4-1.1 2.7-2.6 5.3-5.3 8-8 1.4-1.4 2.1-1.4 3.5 0l10 10c3.8 3.7 7.7 7.6 11.7 11.5zm-42 6.1c-.4.2-1.1.3-1.6.7-1.9 1.7-3.7 3.5-5.4 5.4-1.1 1.3-.9 3.1.4 4.3 1.2 1.2 3.1 1.2 4.3.1 1.7-1.6 3.4-3.3 5-5 1-1 1.2-2.2.6-3.5-.6-1.2-1.6-1.8-3.3-2zm10.8 10.4c-.1 0-.2-.1-.2-.1 0-1.4-.7-2.4-2-2.9-1.3-.6-2.5-.4-3.5.6-1.6 1.5-3.2 3.1-4.7 4.7-1.4 1.4-1.4 3.3-.2 4.6 1.4 1.4 3.3 1.4 4.7 0 1.6-1.5 3.1-3 4.6-4.6.5-.7.8-1.6 1.3-2.3zM45 79.1c.2 1.4 1 2.6 2.2 3.1 1.3.5 2.5.3 3.5-.7 1.6-1.6 3.3-3.2 4.9-4.9 1.3-1.3 1.2-3.2 0-4.4-1.3-1.3-3.2-1.4-4.5-.1-1.7 1.6-3.3 3.2-4.9 4.9-.5.6-.8 1.4-1.2 2.1zM24.2 58.3c.2 1.5.9 2.5 2.1 3.1 1.3.6 2.5.4 3.5-.6 1.7-1.6 3.3-3.3 4.9-4.9 1.3-1.3 1.2-3.2 0-4.4-1.3-1.3-3.2-1.4-4.5-.1-1.6 1.6-3.3 3.2-4.8 4.9-.6.5-.9 1.3-1.2 2z" fill="#5eb6f7" class="color000 svgShape"></path></svg></g></svg>