<?xml version="1.0" standalone="no"?>
<svg viewBox="0 0 200 200" xmlns="http://www.w3.org/2000/svg">
  <path fill="#747fe0" d="M31,-44.3C43.8,-40,60.2,-37.5,72.1,-28.1C83.9,-18.6,91.2,-2.2,88.9,12.7C86.7,27.7,74.9,41.2,61.5,49C48,56.7,32.9,58.7,19.1,60.9C5.2,63.1,-7.4,65.6,-19.9,63.7C-32.3,61.8,-44.6,55.6,-51.2,45.7C-57.8,35.8,-58.5,22.1,-63.3,7.4C-68.1,-7.4,-76.9,-23.2,-75.4,-37.7C-73.9,-52.2,-62.1,-65.3,-47.9,-68.8C-33.6,-72.3,-16.8,-66.3,-3.8,-60.3C9.1,-54.4,18.2,-48.5,31,-44.3Z" transform="translate(100 100)" />
</svg>
