<?xml version="1.0" standalone="no"?>
<svg viewBox="0 0 200 200" xmlns="http://www.w3.org/2000/svg">
  <path fill="#FFD6E8" d="M41.6,-53.1C54.1,-48.2,64.6,-36.3,64.7,-23.9C64.9,-11.4,54.8,1.5,47.1,12.2C39.4,22.9,34.1,31.3,26.7,38.9C19.2,46.4,9.6,53.2,-2.2,56.2C-14,59.2,-28,58.5,-35.7,51.1C-43.4,43.6,-44.8,29.3,-53.5,14.5C-62.2,-0.2,-78.3,-15.5,-80.4,-31.4C-82.4,-47.3,-70.4,-63.8,-54.7,-67.7C-39,-71.5,-19.5,-62.6,-2.5,-59.2C14.6,-55.8,29.1,-57.9,41.6,-53.1Z" transform="translate(100 100)" />
</svg>
