<?xml version="1.0" standalone="no"?>
<svg viewBox="0 0 200 200" xmlns="http://www.w3.org/2000/svg">
  <path fill="#24A148" d="M37.2,-55.4C49.4,-57.5,61.2,-49.8,68.4,-38.9C75.7,-28.1,78.5,-14,74.2,-2.5C70,9.1,58.7,18.3,52.4,30.7C46.1,43.2,44.6,59,36.7,61.1C28.8,63.2,14.4,51.5,1.8,48.4C-10.9,45.4,-21.8,50.9,-34.6,51.7C-47.5,52.5,-62.4,48.6,-63.4,39.1C-64.4,29.7,-51.5,14.9,-52.8,-0.7C-54.1,-16.4,-69.6,-32.7,-70.1,-44.9C-70.7,-57.1,-56.5,-65.1,-42.3,-61.9C-28.1,-58.6,-14.1,-44.2,-0.8,-42.8C12.5,-41.5,25.1,-53.3,37.2,-55.4Z" transform="translate(100 100)" />
</svg>
