<?xml version="1.0" standalone="no"?>
<svg viewBox="0 0 200 200" xmlns="http://www.w3.org/2000/svg">
  <path fill="#D0E2FF" d="M40.4,-66.2C47.9,-65.7,46.3,-45.8,50.9,-31.5C55.4,-17.2,66.1,-8.6,61.6,-2.6C57.1,3.4,37.4,6.8,28.7,13.9C19.9,20.9,22.2,31.6,19.2,39.7C16.3,47.8,8.1,53.5,2.8,48.6C-2.5,43.8,-5,28.4,-12.8,23.1C-20.5,17.7,-33.5,22.3,-38.8,20.1C-44,17.9,-41.5,8.9,-46.3,-2.7C-51,-14.4,-63,-28.8,-63.7,-41.3C-64.4,-53.8,-53.8,-64.3,-41.3,-61.9C-28.8,-59.4,-14.4,-44,1,-45.8C16.5,-47.6,33,-66.6,40.4,-66.2Z" transform="translate(100 100)" />
</svg>
