<?xml version="1.0" encoding="UTF-8" standalone="no"?>
<!DOCTYPE svg PUBLIC "-//W3C//DTD SVG 1.1//EN" "http://www.w3.org/Graphics/SVG/1.1/DTD/svg11.dtd">
<svg version="1.1" xmlns="http://www.w3.org/2000/svg" xmlns:xlink="http://www.w3.org/1999/xlink" preserveAspectRatio="xMidYMid meet" viewBox="159.94241673456136 65.23039352171807 344.1151665308772 511.5392129565638" width="318.12" height="507.54"><defs><path d="M210.74 90.61C215.79 90.61 219.89 94.7 219.89 99.76C219.89 175.96 219.89 395.4 219.89 471.6C219.89 476.65 215.79 480.75 210.74 480.75C200.78 480.75 180.05 480.75 170.09 480.75C165.04 480.75 160.94 476.65 160.94 471.6C160.94 395.4 160.94 175.96 160.94 99.76C160.94 94.7 165.04 90.61 170.09 90.61C180.05 90.61 200.78 90.61 210.74 90.61Z" id="aFVu5ZK6a"></path><path d="M219.89 96.61C219.89 113.37 206.68 126.98 190.41 126.98C174.15 126.98 160.94 113.37 160.94 96.61C160.94 79.84 174.15 66.23 190.41 66.23C206.68 66.23 219.89 79.84 219.89 96.61Z" id="a5891uvY3S"></path><path d="M219.89 474.25C219.89 491.02 206.68 504.63 190.41 504.63C174.15 504.63 160.94 491.02 160.94 474.25C160.94 457.49 174.15 443.88 190.41 443.88C206.68 443.88 219.89 457.49 219.89 474.25Z" id="a2RXILesWv"></path><path d="M378.61 398.39C355.71 398.4 341.4 398.42 335.67 398.42C317.87 398.43 300.3 394.37 284.32 386.54C281.24 385.03 289.18 388.92 284.32 386.54C274.21 381.59 265.46 374.26 258.81 365.17C256.44 361.94 260.83 367.94 258.81 365.17C251.12 354.66 246.97 341.97 246.97 328.94C246.97 323.73 246.97 328.34 246.97 323.17C246.97 309.9 250.64 296.89 257.57 285.57C259.84 281.86 255.45 289.03 257.57 285.57C264.98 273.46 275.75 263.76 288.58 257.66C275.48 263.89 275.48 263.89 288.58 257.66C299.02 252.68 310.25 249.61 321.73 248.56C324.68 248.29 357.44 248.56 360.43 248.56C364.79 248.56 359.23 248.56 343.76 248.56" id="b7kTwT6FYD"></path><path d="M190.41 548.73C297.41 548.73 364.28 548.73 391.03 548.73C408.84 548.73 426.4 544.66 442.39 536.83C445.47 535.32 437.53 539.21 442.39 536.83C452.46 531.9 461.02 524.34 467.15 514.95C469.35 511.59 465.28 517.82 467.15 514.95C474.33 503.97 478.37 491.24 478.84 478.13C479.02 473.14 478.83 478.39 479.01 473.45C479.49 460.16 476.45 446.99 470.22 435.25C468.18 431.4 472.12 438.83 470.22 435.25C463.61 422.8 453 412.93 440.11 407.23C436.06 405.44 444.09 408.99 440.11 407.23C426.78 401.34 412.35 398.33 397.78 398.39C396.02 398.39 391.61 398.41 384.57 398.44" id="a2tg9oY3MN"></path><path d="M219.89 548.73C219.89 562.55 208.28 573.77 193.99 573.77C179.7 573.77 168.1 562.55 168.1 548.73C168.1 534.91 179.7 523.7 193.99 523.7C208.28 523.7 219.89 534.91 219.89 548.73Z" id="b1LtCdWbtG"></path></defs><g><g><use xlink:href="#aFVu5ZK6a" opacity="1" fill="#d6e2fa" fill-opacity="1"></use><g><use xlink:href="#aFVu5ZK6a" opacity="1" fill-opacity="0" stroke="#d6e2fa" stroke-width="1" stroke-opacity="1"></use></g></g><g><use xlink:href="#a5891uvY3S" opacity="1" fill="#d6e2fa" fill-opacity="1"></use><g><use xlink:href="#a5891uvY3S" opacity="1" fill-opacity="0" stroke="#d6e2fa" stroke-width="1" stroke-opacity="1"></use></g></g><g><use xlink:href="#a2RXILesWv" opacity="1" fill="#d6e2fa" fill-opacity="1"></use><g><use xlink:href="#a2RXILesWv" opacity="1" fill-opacity="0" stroke="#d6e2fa" stroke-width="1" stroke-opacity="1"></use></g></g><g><g><use xlink:href="#b7kTwT6FYD" opacity="1" fill-opacity="0" stroke="#d6e2fa" stroke-width="50" stroke-opacity="1"></use></g></g><g><g><use xlink:href="#a2tg9oY3MN" opacity="1" fill-opacity="0" stroke="#3a67b2" stroke-width="50" stroke-opacity="1"></use></g></g><g><use xlink:href="#b1LtCdWbtG" opacity="1" fill="#3a67b2" fill-opacity="1"></use><g><use xlink:href="#b1LtCdWbtG" opacity="1" fill-opacity="0" stroke="#3a67b2" stroke-width="1" stroke-opacity="1"></use></g></g></g></svg>