<?xml version="1.0" encoding="UTF-8" standalone="no"?>
<!DOCTYPE svg PUBLIC "-//W3C//DTD SVG 1.1//EN" "http://www.w3.org/Graphics/SVG/1.1/DTD/svg11.dtd">
<svg version="1.1" xmlns="http://www.w3.org/2000/svg" xmlns:xlink="http://www.w3.org/1999/xlink" preserveAspectRatio="xMidYMid meet" viewBox="133.22015185209855 6.897060188384785 433.58296363514023 625.2647031526421" width="407.58" height="621.26"><defs><path d="M188.41 603.96C188.41 617.87 176.27 629.16 161.31 629.16C146.36 629.16 134.22 617.87 134.22 603.96C134.22 590.05 146.36 578.76 161.31 578.76C176.27 578.76 188.41 590.05 188.41 603.96Z" id="a3vjZ8w2I"></path><path d="M196.77 38.16C201.8 38.16 205.88 42.24 205.88 47.27C205.88 142.31 205.88 418.35 205.88 513.39C205.88 518.42 201.8 522.5 196.77 522.5C186.86 522.5 166.24 522.5 156.32 522.5C151.29 522.5 147.22 518.42 147.22 513.39C147.22 418.35 147.22 142.31 147.22 47.27C147.22 42.24 151.29 38.16 156.32 38.16C166.24 38.16 186.86 38.16 196.77 38.16Z" id="a5s5pBctId"></path><path d="M163.31 603.96C304.62 603.96 392.94 603.96 428.27 603.96C450.4 603.96 472.26 599.14 492.33 589.83C496.64 587.83 488.05 591.82 494.6 588.78C507.23 582.92 518.07 573.79 525.98 562.32C528.9 558.1 523.93 565.3 526.43 561.67C535.67 548.29 540.9 532.56 541.52 516.31C541.75 510.11 541.51 516.64 541.74 510.5C542.36 494.04 538.43 477.72 530.37 463.35C527.66 458.52 532.57 467.29 530.05 462.78C521.48 447.51 508.06 435.54 491.91 428.79C486.37 426.47 494.99 430.08 489.53 427.79C472.82 420.8 454.88 417.24 436.77 417.31C434.25 417.32 427.96 417.34 417.9 417.38" id="e1vY7HtdGv"></path><path d="M410.08 417.31C379.05 417.34 359.66 417.35 351.9 417.36C329.77 417.37 307.91 412.56 287.84 403.25C283.52 401.25 292.11 405.24 285.57 402.2C272.89 396.32 261.81 387.48 253.26 376.42C250.1 372.33 255.41 379.2 252.7 375.69C242.83 362.92 237.47 347.24 237.47 331.1C237.47 324.63 237.47 330.35 237.47 323.94C237.47 307.49 242.22 291.4 251.15 277.59C254.18 272.91 248.77 281.27 251.6 276.9C261.17 262.09 274.82 250.36 290.9 243.11C274.48 250.52 274.86 250.35 292.03 242.6C305.73 236.43 320.45 232.61 335.5 231.31C339.38 230.97 382.33 231.31 386.24 231.31C391.96 231.31 384.68 231.31 364.39 231.31" id="eguGS2Sav"></path><path d="M205.88 45.61C205.88 66.42 192.74 83.32 176.55 83.32C160.36 83.32 147.22 66.42 147.22 45.61C147.22 24.79 160.36 7.9 176.55 7.9C192.74 7.9 205.88 24.79 205.88 45.61Z" id="a1qBOwlBj"></path><path d="M205.88 514.44C205.88 535.25 192.74 552.15 176.55 552.15C160.36 552.15 147.22 535.25 147.22 514.44C147.22 493.62 160.36 476.73 176.55 476.73C192.74 476.73 205.88 493.62 205.88 514.44Z" id="a1lBMwyqo4"></path></defs><g><g><use xlink:href="#a3vjZ8w2I" opacity="1" fill="#3a67b2" fill-opacity="1"></use><g><use xlink:href="#a3vjZ8w2I" opacity="1" fill-opacity="0" stroke="#3a67b2" stroke-width="1" stroke-opacity="1"></use></g></g><g><use xlink:href="#a5s5pBctId" opacity="1" fill="#3a67b2" fill-opacity="1"></use><g><use xlink:href="#a5s5pBctId" opacity="1" fill-opacity="0" stroke="#3a67b2" stroke-width="1" stroke-opacity="1"></use></g></g><g><g><use xlink:href="#e1vY7HtdGv" opacity="1" fill-opacity="0" stroke="#3a67b2" stroke-width="50" stroke-opacity="1"></use></g></g><g><g><use xlink:href="#eguGS2Sav" opacity="1" fill-opacity="0" stroke="#3a67b2" stroke-width="50" stroke-opacity="1"></use></g></g><g><use xlink:href="#a1qBOwlBj" opacity="1" fill="#3a67b2" fill-opacity="1"></use><g><use xlink:href="#a1qBOwlBj" opacity="1" fill-opacity="0" stroke="#3a67b2" stroke-width="1" stroke-opacity="1"></use></g></g><g><use xlink:href="#a1lBMwyqo4" opacity="1" fill="#3a67b2" fill-opacity="1"></use><g><use xlink:href="#a1lBMwyqo4" opacity="1" fill-opacity="0" stroke="#3a67b2" stroke-width="1" stroke-opacity="1"></use></g></g></g></svg>