<svg id="Capa_1" enable-background="new 0 0 512 512" height="512" viewBox="0 0 512 512" width="512" xmlns="http://www.w3.org/2000/svg"><g><g><path d="m401 512h-290c-16.709 0-32.043-9.259-39.824-24.046-7.781-14.788-6.727-32.669 2.737-46.44l241.562-351.514h-204.475c-24.853 0-45-20.147-45-45s20.147-45 45-45h290c16.709 0 32.043 9.259 39.824 24.046 7.781 14.788 6.727 32.669-2.737 46.44l-241.562 351.514h204.475c24.853 0 45 20.147 45 45s-20.147 45-45 45z" fill="#b2fa09"/></g><g><path d="m438.087 70.486c9.464-13.771 10.518-31.652 2.737-46.44-7.781-14.787-23.115-24.046-39.824-24.046h-145v90h59.475l-59.475 86.546v158.908z" fill="#00cb75"/></g><path d="m401 422h-145v90h145c24.853 0 45-20.147 45-45s-20.147-45-45-45z" fill="#00cb75"/></g></svg>